<?xml version="1.0" standalone="no"?>
<svg viewBox="0 0 200 200" xmlns="http://www.w3.org/2000/svg">
  <path fill="#D1F9FF" d="M42,-74.4C51.1,-67.5,53,-49.6,57.6,-35.3C62.3,-21.1,69.7,-10.6,72.5,1.6C75.3,13.8,73.6,27.7,67.9,40.1C62.2,52.5,52.7,63.5,40.7,69.6C28.7,75.7,14.4,76.8,0.5,75.8C-13.3,74.9,-26.6,72,-40,66.8C-53.5,61.6,-67.2,54.1,-75,42.6C-82.8,31.1,-84.8,15.5,-84.7,0C-84.7,-15.5,-82.7,-31.1,-75.7,-43.9C-68.6,-56.7,-56.5,-66.7,-43,-71.2C-29.6,-75.7,-14.8,-74.6,0.8,-76C16.4,-77.4,32.9,-81.4,42,-74.4Z" transform="translate(100 100)" />
</svg>
